<!DOCTYPE svg PUBLIC "-//W3C//DTD SVG 20010904//EN" "http://www.w3.org/TR/2001/REC-SVG-20010904/DTD/svg10.dtd">
<svg version="1.0" xmlns="http://www.w3.org/2000/svg" width="857px" height="989px" viewBox="0 0 8570 9890" preserveAspectRatio="xMidYMid meet">
<g id="layer1" fill="#ffffff" stroke="none">
 <path d="M4029 9756 c-129 -74 -1087 -627 -2129 -1229 l-1895 -1095 0 -2487 0 -2487 2120 -1224 c1166 -674 2131 -1227 2144 -1231 15 -4 42 3 75 20 28 14 989 568 2136 1230 l2085 1205 0 2487 0 2488 -2075 1199 c-1141 659 -2101 1212 -2132 1228 -32 17 -66 30 -76 30 -11 0 -124 -60 -253 -134z m2016 -3776 c966 -1675 1765 -3059 1776 -3076 l18 -30 -145 -84 c-79 -45 -146 -81 -148 -79 -8 8 -3566 6173 -3566 6179 0 3 65 42 143 86 125 72 143 80 153 65 6 -9 802 -1386 1769 -3061z m-1613 -937 c977 -1693 1778 -3084 1780 -3092 2 -9 -44 -41 -125 -89 -70 -41 -129 -73 -131 -71 -7 8 -3557 6159 -3561 6172 -4 8 38 38 117 84 68 39 128 72 133 72 6 1 810 -1384 1787 -3076z m-1177 -633 c966 -1675 1770 -3066 1785 -3091 l28 -46 -132 -76 c-72 -42 -134 -73 -137 -69 -4 4 -798 1377 -1764 3052 -967 1675 -1768 3063 -1781 3085 l-24 41 133 76 c72 42 133 75 133 74 1 0 792 -1371 1759 -3046z m-786 -509 c964 -1668 1751 -3035 1749 -3036 -2 -2 -792 452 -1755 1008 l-1753 1012 0 2029 c0 1116 2 2027 4 2025 2 -2 792 -1369 1755 -3038z"/>
 </g>

</svg>